<?xml version="1.0" encoding="UTF-8"?>
<svg width="800" height="800" version="1.1" viewBox="0 0 800 800" xmlns="http://www.w3.org/2000/svg">
 <path d="m400 0c-220.91 0-400 179.09-400 400s179.09 400 400 400 400-179.09 400-400-179.09-400-400-400zm0 50c193.3 0 350 156.7 350 350s-156.7 350-350 350-350-156.7-350-350 156.7-350 350-350z" fill="#1abc9c"/>
 <path d="m400 150c-137.71 0-250 112.29-250 250s112.29 250 250 250 250-112.29 250-250-112.29-250-250-250zm0 50c110.46 0 200 89.543 200 200s-89.543 200-200 200-200-89.543-200-200 89.543-200 200-200z" fill="#1abc9c"/>
 <path d="m400 300c-55.228 0-100 44.772-100 100s44.772 100 100 100 100-44.772 100-100-44.772-100-100-100zm0 50c27.614 0 50 22.386 50 50s-22.386 50-50 50-50-22.386-50-50 22.386-50 50-50z" fill="#1abc9c"/>
</svg>